<?xml version="1.0" encoding="UTF-8"?>
<svg xmlns="http://www.w3.org/2000/svg" xmlns:xlink="http://www.w3.org/1999/xlink" width="16px" height="16px" viewBox="0 0 16 16" version="1.1">
  <title>menu_icon</title>
  <g id="页面-1" stroke="none" stroke-width="1" fill="none" fill-rule="evenodd">
    <g id="画板" transform="translate(-668.000000, -341.000000)" fill="#B2B2B2">
      <g id="窗口/操作框备份-3" transform="translate(60.000000, 177.000000)">
        <g id="controls/mailList-erji备份-19" transform="translate(320.000000, 156.000000)">
          <g id="menu_icon" transform="translate(288.000000, 8.000000)">
            <path d="M8,3.55271368e-14 C3.59834483,3.55271368e-14 3.55271368e-14,3.59834483 3.55271368e-14,8 C3.55271368e-14,12.4016552 3.59834483,16 8,16 C12.4016552,16 16,12.4016552 16,8 C16,3.59834484 12.4016552,3.55271368e-14 8,3.55271368e-14 Z M8,1 C11.84832,1 15,4.15168 15,8 C15,11.84832 11.84832,15 8,15 C4.15168002,15 1,11.84832 1,8 C1,4.15168002 4.15168,1 8,1 Z" id="形状" fill-rule="nonzero"></path>
            <path d="M7.8137085,3.07106781 C8.08985087,3.07106781 8.3137085,3.2987206 8.3137085,3.58071733 L8.31306781,7.57106781 L12.304059,7.57106781 C12.554256,7.57106781 12.7623444,7.75432398 12.8054974,7.98331918 L12.8137085,8.07106781 C12.8137085,8.34721019 12.5860557,8.57106781 12.304059,8.57106781 L8.31306781,8.57106781 L8.3137085,12.5614183 C8.3137085,12.8116153 8.13045233,13.0197037 7.90145713,13.0628567 L7.8137085,13.0710678 C7.53756612,13.0710678 7.3137085,12.843415 7.3137085,12.5614183 L7.31306781,8.57106781 L3.32335801,8.57106781 C3.04188636,8.57106781 2.8137085,8.33913422 2.8137085,8.07106781 C2.8137085,7.79492544 3.04136129,7.57106781 3.32335801,7.57106781 L7.31306781,7.57106781 L7.3137085,3.58071733 C7.3137085,3.29924567 7.54564209,3.07106781 7.8137085,3.07106781 Z" id="Combined-Shape" transform="translate(8.071068, 8.071068) rotate(-315.000000) translate(-8.071068, -8.071068) "></path>
          </g>
        </g>
      </g>
    </g>
  </g>
</svg>
