<svg xmlns="http://www.w3.org/2000/svg" width="60" height="60" viewBox="0 0 60 60">
    <g fill="none" fill-rule="evenodd">
        <path fill="#FB6161" d="M60 30.37C60 13.431 46.569 0 29.63 0 13.43 0 0 13.431 0 30.37 0 46.57 13.431 60 29.63 60 46.569 60 60 46.569 60 30.37z"/>
        <path fill="#FFF" d="M29.736 16.129h.528c1.102 0 1.961.891 1.92 1.991l-.642 17.39c-.02.552-.485.997-1.04.997h-1.005a1.042 1.042 0 0 1-1.04-.997l-.642-17.39a1.913 1.913 0 0 1 1.92-1.991zM30 43.871a2.258 2.258 0 1 1 0-4.516 2.258 2.258 0 0 1 0 4.516z"/>
    </g>
</svg>
