<?xml version="1.0" standalone="no"?><!DOCTYPE svg PUBLIC "-//W3C//DTD SVG 1.1//EN" "http://www.w3.org/Graphics/SVG/1.1/DTD/svg11.dtd"><svg t="1612340209538" class="icon" viewBox="0 0 1024 1024" version="1.1" xmlns="http://www.w3.org/2000/svg" p-id="18501" xmlns:xlink="http://www.w3.org/1999/xlink" width="200" height="200"><defs><style type="text/css"></style></defs><path d="M1024 518.336C1024 794.816 794.752 1024 505.664 1024 229.184 1024 0 794.752 0 518.336 0 229.248 229.248 0 505.664 0 794.752 0 1024 229.248 1024 518.336zM486.4 773.12h51.2a10.24 10.24 0 0 0 10.24-10.24V424.96a10.24 10.24 0 0 0-10.24-10.24h-51.2a10.24 10.24 0 0 0-10.24 10.24v337.92c0 5.632 4.608 10.24 10.24 10.24zM512 256a51.2 51.2 0 1 0 0 102.4A51.2 51.2 0 0 0 512 256z" fill="#C4CAD3" p-id="18502"></path></svg>