<?xml version="1.0" encoding="UTF-8"?>
<svg width="16px" height="16px" viewBox="0 0 16 16" version="1.1" xmlns="http://www.w3.org/2000/svg" xmlns:xlink="http://www.w3.org/1999/xlink">
    <title>menu_icon</title>
    <g id="店铺支持组织培训20200901" stroke="none" stroke-width="1" fill="none" fill-rule="evenodd">
        <g id="状态" transform="translate(-259.000000, -270.000000)" fill="#B2B2B2" fill-rule="nonzero">
            <g id="左侧部门备份" transform="translate(91.000000, 104.000000)">
                <g id="controls/mailList-erji备份-9" transform="translate(1.000000, 158.000000)">
                    <g id="menu_icon" transform="translate(167.000000, 8.000000)">
                        <path d="M7.97465636,0.00214776095 C3.58812714,0.00214776095 0.00214776095,3.58812714 0.00214776095,7.97465636 C0.00214776095,12.3611856 3.58812714,15.9471649 7.97465636,15.9471649 C12.3611856,15.9471649 15.9471649,12.3611856 15.9471649,7.97465636 C15.9471649,3.58812716 12.3611856,0.00214776095 7.97465636,0.00214776095 Z M7.97465636,1.10180412 C11.7530756,1.10180412 14.8475086,4.19623711 14.8475086,7.97465636 C14.8475086,11.7530756 11.7530756,14.8475086 7.97465636,14.8475086 C4.19623713,14.8475086 1.10180412,11.7530756 1.10180412,7.97465636 C1.10180412,4.19623713 4.19623711,1.10180412 7.97465636,1.10180412 Z" id="形状"></path>
                        <path d="M7.14991409,7.97465636 C7.14991409,8.2693084 7.30710907,8.54157812 7.56228522,8.68890415 C7.81746137,8.83623017 8.13185136,8.83623017 8.38702751,8.68890415 C8.64220366,8.54157812 8.79939863,8.2693084 8.79939863,7.97465636 C8.79939863,7.5191638 8.43014893,7.14991413 7.97465636,7.14991413 C7.5191638,7.14991413 7.14991409,7.5191638 7.14991409,7.97465636 L7.14991409,7.97465636 Z M3.85094502,7.97465636 C3.85094502,8.43014894 4.22019471,8.79939863 4.67568729,8.79939863 C5.13117987,8.79939863 5.50042956,8.43014894 5.50042956,7.97465636 C5.50042956,7.51916379 5.13117987,7.14991409 4.67568729,7.14991409 C4.22019471,7.14991409 3.85094502,7.51916379 3.85094502,7.97465636 L3.85094502,7.97465636 Z M10.4488832,7.97465636 C10.4488832,8.43014894 10.8181329,8.79939863 11.2736254,8.79939863 C11.729118,8.79939863 12.0983677,8.43014894 12.0983677,7.97465636 C12.0983677,7.51916379 11.729118,7.14991409 11.2736254,7.14991409 C10.8181329,7.14991409 10.4488832,7.51916379 10.4488832,7.97465636 L10.4488832,7.97465636 Z" id="形状"></path>
                    </g>
                </g>
            </g>
        </g>
    </g>
</svg>