<?xml version="1.0" encoding="UTF-8"?>
<svg width="16px" height="16px" viewBox="0 0 16 16" version="1.1" xmlns="http://www.w3.org/2000/svg" xmlns:xlink="http://www.w3.org/1999/xlink">
    <title>menu_icon</title>
    <g id="店铺支持组织培训20200901" stroke="none" stroke-width="1" fill="none" fill-rule="evenodd">
        <g id="状态" transform="translate(-235.000000, -687.000000)" fill="#105CFB">
            <g id="controls/mailList-erji备份-9" transform="translate(91.000000, 679.000000)">
                <g id="menu_icon" transform="translate(144.000000, 8.000000)">
                    <path d="M7.97465636,0.00214776095 C3.58812714,0.00214776095 0.00214776095,3.58812714 0.00214776095,7.97465636 C0.00214776095,12.3611856 3.58812714,15.9471649 7.97465636,15.9471649 C12.3611856,15.9471649 15.9471649,12.3611856 15.9471649,7.97465636 C15.9471649,3.58812716 12.3611856,0.00214776095 7.97465636,0.00214776095 Z M7.97465636,1.10180412 C11.7530756,1.10180412 14.8475086,4.19623711 14.8475086,7.97465636 C14.8475086,11.7530756 11.7530756,14.8475086 7.97465636,14.8475086 C4.19623713,14.8475086 1.10180412,11.7530756 1.10180412,7.97465636 C1.10180412,4.19623713 4.19623711,1.10180412 7.97465636,1.10180412 Z" id="形状" fill-rule="nonzero"></path>
                    <path d="M8,3 C8.27614237,3 8.5,3.22765279 8.5,3.50964952 L8.5,7.5 L12.4903505,7.5 C12.7405475,7.5 12.9486359,7.68325617 12.9917889,7.91225137 L13,8 C13,8.27614237 12.7723472,8.5 12.4903505,8.5 L8.5,8.5 L8.5,12.4903505 C8.5,12.7405475 8.31674383,12.9486359 8.08774863,12.9917889 L8,13 C7.72385763,13 7.5,12.7723472 7.5,12.4903505 L7.5,8.5 L3.50964952,8.5 C3.22817786,8.5 3,8.26806641 3,8 C3,7.72385763 3.22765279,7.5 3.50964952,7.5 L7.5,7.5 L7.5,3.50964952 C7.5,3.22817786 7.73193359,3 8,3 Z" id="Combined-Shape"></path>
                </g>
            </g>
        </g>
    </g>
</svg>